<svg width="256" height="256" xmlns="http://www.w3.org/2000/svg">
  <!-- Background -->
  <rect width="256" height="256" fill="#0078d4" rx="32"/>
  
  <!-- Browser window -->
  <rect x="40" y="60" width="176" height="120" fill="#ffffff" rx="8"/>
  <rect x="40" y="60" width="176" height="24" fill="#2d2d2d" rx="8"/>
  <circle cx="56" cy="72" r="4" fill="#ff5f57"/>
  <circle cx="72" cy="72" r="4" fill="#ffbd2e"/>
  <circle cx="88" cy="72" r="4" fill="#28ca42"/>
  
  <!-- AI brain/chat icon -->
  <circle cx="128" cy="160" r="36" fill="#ffffff" opacity="0.9"/>
  <path d="M 128 140 Q 145 145 145 160 Q 145 175 128 180 Q 111 175 111 160 Q 111 145 128 140 Z" fill="#0078d4"/>
  
  <!-- Microphone icon -->
  <ellipse cx="100" cy="200" rx="12" ry="16" fill="#ffffff"/>
  <rect x="97" y="200" width="6" height="12" fill="#ffffff"/>
  <path d="M 88 212 Q 88 224 100 224 Q 112 224 112 212" fill="none" stroke="#ffffff" stroke-width="3"/>
  
  <!-- Sound waves -->
  <path d="M 140 195 Q 145 200 140 205" fill="none" stroke="#ffffff" stroke-width="3" stroke-linecap="round"/>
  <path d="M 150 190 Q 158 200 150 210" fill="none" stroke="#ffffff" stroke-width="3" stroke-linecap="round"/>
  <path d="M 160 185 Q 170 200 160 215" fill="none" stroke="#ffffff" stroke-width="3" stroke-linecap="round"/>
</svg>
